SplineFontDB: 3.2
FontName: UnicodiaHan
FullName: UnicodiaHan
FamilyName: UnicodiaHan
Weight: Regular
Copyright: Copyright (c) 2022-2025, Mikhail Merkuryev
UComments: "2022-9-30: Created with FontForge (http://fontforge.org)"
Version: 2.10.1
ItalicAngle: 0
UnderlinePosition: -100
UnderlineWidth: 50
Ascent: 800
Descent: 200
InvalidEm: 0
LayerCount: 2
Layer: 0 0 "Back" 1
Layer: 1 0 "Fore" 0
XUID: [1021 59 1751208496 28364]
FSType: 0
OS2Version: 0
OS2_WeightWidthSlopeOnly: 0
OS2_UseTypoMetrics: 1
CreationTime: 1664568655
ModificationTime: 1746260522
PfmFamily: 17
TTFWeight: 400
TTFWidth: 5
LineGap: 90
VLineGap: 0
OS2TypoAscent: 900
OS2TypoAOffset: 0
OS2TypoDescent: -100
OS2TypoDOffset: 0
OS2TypoLinegap: 90
OS2WinAscent: 900
OS2WinAOffset: 0
OS2WinDescent: 100
OS2WinDOffset: 0
HheadAscent: 900
HheadAOffset: 0
HheadDescent: 100
HheadDOffset: 0
OS2Vendor: 'PfEd'
OS2UnicodeRanges: 00000000.2a000000.00000000.00000000
MarkAttachClasses: 1
DEI: 91125
LangName: 1033
GaspTable: 1 65535 15 1
Encoding: Custom
UnicodeInterp: none
NameList: AGL For New Fonts
DisplaySize: -48
AntiAlias: 1
FitToEm: 0
WinInfo: 0 27 13
BeginPrivate: 0
EndPrivate
TeXData: 1 0 0 346030 173015 115343 0 1048576 115343 783286 444596 497025 792723 393216 433062 380633 303038 157286 324010 404750 52429 2506097 1059062 262144
BeginChars: 28 28

StartChar: u1AFF0
Encoding: 0 110576 0
Width: 640
VWidth: 1040
Flags: HW
LayerCount: 2
Fore
SplineSet
95 2 m 1
 293.987035987 196.133693646 413.889682295 510.909548566 513 853 c 1
 535 832 l 1
 523.65646366 739.687083579 449.858860834 243.262389313 146 -53 c 1
 95 2 l 1
EndSplineSet
EndChar

StartChar: u1AFF1
Encoding: 1 110577 1
Width: 640
VWidth: 1040
Flags: HW
LayerCount: 2
Fore
SplineSet
146 853 m 1
 381.043752184 619.425271267 501.193684196 243.113466543 535 -32 c 1
 513 -53 l 1
 396.886330141 349.62792016 271.398331252 625.226291993 95 798 c 1
 146 853 l 1
EndSplineSet
EndChar

StartChar: u1AFF2
Encoding: 2 110578 2
Width: 640
VWidth: 1040
Flags: HW
LayerCount: 2
Fore
SplineSet
478 443.5 m 128
 478 244.90628589 240.82033574 349.434847134 163 240 c 1
 132 240 l 1
 132 316.666666667 142.333333333 380.5 163 431.5 c 128
 183.666666667 482.5 206.666666667 517.333333333 232 536 c 0
 266 561.333333333 304.833333333 574 348.5 574 c 128
 411.626111935 574 478 530.931121335 478 443.5 c 128
EndSplineSet
EndChar

StartChar: u1AFF3
Encoding: 3 110579 3
Width: 640
VWidth: 1040
Flags: HW
LayerCount: 2
Fore
SplineSet
443 -53 m 1
 329.750489998 235.849873826 145 370.131816925 145 389 c 2
 145 409 l 2
 145 413.666666667 155 426.333333333 175 447 c 128
 304.236907824 580.544804751 381.350873 696.765911027 443 853 c 1
 465 832 l 1
 433 682.666666667 356.333333333 538.666666667 235 400 c 1
 356.333333333 261.333333333 433 117.333333333 465 -32 c 1
 443 -53 l 1
EndSplineSet
EndChar

StartChar: u1AFF5
Encoding: 4 110581 4
Width: 640
VWidth: 1040
Flags: HW
LayerCount: 2
Fore
SplineSet
325 -60 m 1
 305 -60 l 1
 270 400 l 1
 305 860 l 1
 325 860 l 1
 360 400 l 1
 325 -60 l 1
EndSplineSet
EndChar

StartChar: u1AFF6
Encoding: 5 110582 5
Width: 640
VWidth: 1040
Flags: HW
LayerCount: 2
Fore
SplineSet
329 247 m 128
 126.976483195 247 235.169777906 488.553481396 125 562 c 1
 125 593 l 1
 134 593 l 1
 290.00265726 591.852921638 459 524.241667754 459 371 c 0
 459 306.275217406 417.21221063 247 329 247 c 128
EndSplineSet
EndChar

StartChar: u1AFF7
Encoding: 6 110583 6
Width: 640
VWidth: 1040
Flags: HW
LayerCount: 2
Fore
SplineSet
485 91 m 0
 485 4.59201851139 411.081138658 -53 342 -53 c 0
 297.333333333 -53 256.666666667 -32.6666666667 220 8 c 128
 183.333333333 48.6666666667 165 152.333333333 165 319 c 128
 165 485.666666667 179 666 207 860 c 1
 227 860 l 1
 232.333333333 800.666666667 235 749.833333333 235 707.5 c 128
 235 665.166666667 234 544 232 344 c 0
 232 290.666666667 233.666666667 243 237 201 c 1
 272.333333333 221.666666667 304.833333333 232 334.5 232 c 128
 431.446627848 232 485 159.700413029 485 91 c 0
342.5 23 m 128
 388.772660487 23 410 71.1780781501 410 90 c 0
 410 122.291258209 380.336179541 157 343 157 c 2
 340 157 l 2
 310 157 279 145 247 121 c 1
 253 95 261 76 271 64 c 0
 295 36.6666666667 318.833333333 23 342.5 23 c 128
EndSplineSet
EndChar

StartChar: u1AFF8
Encoding: 7 110584 7
Width: 640
VWidth: 1040
Flags: HW
LayerCount: 2
Fore
SplineSet
95 91 m 128
 95 219.262846175 248.073745329 631.583878089 505 853 c 1
 535 850 l 1
 461.666666667 770.666666667 394 671.333333333 332 552 c 128
 270 432.666666667 224 324.333333333 194 227 c 1
 207.333333333 229 223.166666667 230 241.5 230 c 128
 298.982904974 230 381 183.485666912 381 88.5 c 128
 381 37.6402727943 345.458321644 -53 232 -53 c 0
 145.85281734 -53 95 23.8218145849 95 91 c 128
232.5 22 m 128
 238.064327331 22 306 23.4649479247 306 95 c 0
 306 134.333333333 279.333333333 154 226 154 c 0
 215.333333333 154 206 153.333333333 198 152 c 2
 174 150 l 1
 170.666666667 133.333333333 169 118.333333333 169 105 c 0
 169 22.5892138727 230.732797703 22 232.5 22 c 128
EndSplineSet
EndChar

StartChar: u1AFF9
Encoding: 8 110585 8
Width: 640
VWidth: 1040
Flags: HW
LayerCount: 2
Fore
SplineSet
95 708.5 m 128
 95 794.379338188 165.743231631 853 238 853 c 0
 275.333333333 853 311.333333333 836 346 802 c 0
 347.935938399 800.064061601 445.529559292 700.011562305 518 132 c 0
 525.333333333 74.6666666667 531 20 535 -32 c 1
 513 -53 l 1
 473.388108873 103.561283976 397.649617118 472.080347221 350 619 c 1
 312 585 273 568 233 568 c 0
 158.361533526 568 95 631.122969171 95 708.5 c 128
170 709.5 m 128
 170 708.6261293 172.374629205 642 225.5 642 c 128
 248.5 642 275 654.333333333 305 679 c 2
 324 695 l 1
 313.251343534 722.946506813 285.311925166 778 232 778 c 0
 198.890967608 778 170 738.896104039 170 709.5 c 128
EndSplineSet
EndChar

StartChar: u1AFFA
Encoding: 9 110586 9
Width: 640
VWidth: 1040
Flags: HW
LayerCount: 2
Fore
SplineSet
488 444.5 m 128
 488 233.478149079 230.547236213 350.198704093 153 240 c 1
 122 240 l 1
 122 439.49475318 221.451005202 581 351 581 c 0
 419.181634566 581 488 538.594682574 488 444.5 c 128
413 444 m 0
 413 459.586961667 407.229314641 506 338.5 506 c 128
 316.833333333 506 293.666666667 496 269 476 c 0
 224.333333333 442 191 387.333333333 169 312 c 1
 246.125656983 395.832235851 413 337.83666387 413 444 c 0
EndSplineSet
EndChar

StartChar: u1AFFB
Encoding: 10 110587 10
Width: 640
VWidth: 1040
Flags: HW
LayerCount: 2
Fore
SplineSet
95 400 m 128
 95 476.052210513 147.863491814 542 224 542 c 0
 273.333333333 542 320 516.333333333 364 465 c 1
 413.333333333 551 463 680.333333333 513 853 c 1
 535 832 l 1
 513 646 471.666666667 502 411 400 c 1
 471.666666667 298 513 154 535 -32 c 1
 513 -53 l 1
 463 119.666666667 413.333333333 249 364 335 c 1
 320 283.666666667 273.333333333 258 224 258 c 0
 147.859287858 258 95 323.952596519 95 400 c 128
170 400 m 128
 170 368.183491904 189.653864783 332 223 332 c 128
 228.693082908 332 271.292030531 334.997270694 321 400 c 1
 316.990262501 405.346316665 269.060061155 468 225 468 c 128
 189.903218541 468 170 430.975585564 170 400 c 128
EndSplineSet
EndChar

StartChar: u1AFFD
Encoding: 11 110589 11
Width: 640
VWidth: 1040
Flags: HW
LayerCount: 2
Fore
SplineSet
240 310 m 1
 223.419308399 197.619756927 231.481517796 159.852142367 204 -60 c 1
 184 -60 l 1
 171.333333333 59.3333333333 165 155 165 227 c 128
 165 299 171.666666667 356.666666667 185 400 c 1
 171.666666667 443.333333333 165 501 165 573 c 128
 165 645 171.333333333 740.666666667 184 860 c 1
 204 860 l 1
 214.666666667 774.666666667 221.833333333 701.833333333 225.5 641.5 c 128
 229.166666667 581.166666667 234 530.666666667 240 490 c 1
 279.333333333 525.333333333 318.333333333 543 357 543 c 0
 426.494342995 543 485 481.529586066 485 400 c 128
 485 318.47587742 426.499326326 257 357 257 c 0
 318.333333333 257 279.333333333 274.666666667 240 310 c 1
357 332 m 128
 399.503160353 332 410 384.502935235 410 400 c 128
 410 415.500578763 399.501308662 468 357 468 c 128
 329.270679735 468 286.885776116 441.610502028 264 400 c 0
 264.099278429 399.819493766 301.436588856 332 357 332 c 128
EndSplineSet
EndChar

StartChar: u1AFFE
Encoding: 12 110590 12
Width: 640
VWidth: 1040
Flags: HW
LayerCount: 2
Fore
SplineSet
331 312 m 0
 378.429803387 312 391 356.145218026 391 383 c 0
 391 438.961336097 331.209785701 518.300621994 197 556 c 1
 281.842618637 477.944790854 219.729700586 312 331 312 c 0
329.5 237 m 128
 117.798599681 237 234.713491421 498.857672386 125 572 c 1
 125 603 l 1
 141 603 l 2
 316.499309853 603 466 507.659059732 466 374 c 0
 466 305.818365434 423.594682574 237 329.5 237 c 128
EndSplineSet
EndChar

StartChar: u1B000
Encoding: 13 110592 13
Width: 740
Flags: HW
LayerCount: 2
Fore
SplineSet
100 -45 m 1
 100 39 l 1
 230 49 335.666666667 87 417 153 c 0
 506.333333333 225 551.666666667 345.666666667 553 515 c 1
 553 562 l 1
 29 562 l 1
 29 645 l 1
 287 645 l 1
 287 787 l 1
 372 787 l 1
 372 645 l 1
 639 645 l 1
 639 512 l 1
 637 323.333333333 584.666666667 185.166666667 482 97.5 c 128
 379.333333333 9.83333333333 252 -37.6666666667 100 -45 c 1
EndSplineSet
EndChar

StartChar: u1B001
Encoding: 14 110593 14
Width: 848
Flags: HW
LayerCount: 2
Fore
SplineSet
193 744 m 1
 174.333333333 612 165 487.333333333 165 370 c 128
 165 252.666666667 176.333333333 124.333333333 199 -15 c 1
 113 -15 l 1
 95 111.666666667 85.3333333333 239 84 367 c 1
 85.3333333333 485.666666667 94 611.333333333 110 744 c 1
 193 744 l 1
285 120 m 1
 470.853840629 120 666 206.674248017 666 417 c 0
 666 456.474663095 653.943943477 525.051595322 578 565.5 c 128
 547.333333333 581.833333333 502.166666667 590 442.5 590 c 128
 382.833333333 590 330.333333333 581 285 563 c 1
 285 651 l 1
 325.666666667 663.666666667 379.833333333 670 447.5 670 c 128
 559.135676386 670 659.426663082 645.977099164 720 559 c 128
 746 521.666666667 759 474.333333333 759 417 c 0
 759 284.333333333 694 184.333333333 564 117 c 1
 611.333333333 115.666666667 657.666666667 112.333333333 703 107 c 1
 703 32 l 1
 578.333333333 40 485 44 423 44 c 128
 361 44 315 41.6666666667 285 37 c 1
 285 120 l 1
EndSplineSet
EndChar

StartChar: u1B11F
Encoding: 15 110879 15
Width: 791
Flags: HW
LayerCount: 2
Fore
SplineSet
331 -43 m 1
 331 47 l 1
 437.283260744 79.1321485969 489.581287752 162.705436219 491 367 c 1
 326 367 l 1
 326 454 l 1
 491 454 l 1
 491 661 l 1
 346 661 l 1
 346 748 l 1
 716 748 l 1
 716 661 l 1
 581 661 l 1
 581 454 l 1
 736 454 l 1
 736 367 l 1
 581 367 l 1
 581 247.227793434 558.706484424 91.4850007247 456 9.5 c 128
 418 -20.8333333333 376.333333333 -38.3333333333 331 -43 c 1
204 744 m 1
 186 616.666666667 177 493.166666667 177 373.5 c 128
 177 253.833333333 188.333333333 124.333333333 211 -15 c 1
 124 -15 l 1
 106 122.333333333 96.3333333333 249.666666667 95 367 c 0
 96.3333333333 473 105 598.666666667 121 744 c 1
 204 744 l 1
EndSplineSet
EndChar

StartChar: u1B120
Encoding: 16 110880 16
Width: 649
Flags: HW
LayerCount: 2
Fore
SplineSet
-24 -50 m 1
 -4.1632194493 -10.3264388986 87.1389177041 127.902577489 184 220 c 1
 184 766 l 1
 271 766 l 1
 271 296 l 1
 371 375.333333333 482.333333333 440.333333333 605 491 c 1
 605 401 l 1
 463.666666667 339.666666667 342 258.666666667 240 158 c 0
 182 100.666666667 129.666666667 31.3333333333 83 -50 c 1
 -24 -50 l 1
EndSplineSet
EndChar

StartChar: u1B121
Encoding: 17 110881 17
Width: 712
Flags: HW
LayerCount: 2
Fore
SplineSet
637 822 m 1
 626.505777814 799.51238103 535.62536689 653.163223442 429 553 c 1
 429 95 l 1
 649 95 l 1
 649 7 l 1
 41 7 l 1
 41 95 l 1
 342 95 l 1
 342 477 l 1
 242 397.666666667 130.666666667 332.666666667 8 282 c 1
 8 372 l 1
 345.751948 518.848673044 479.188320852 734.894264318 530 822 c 1
 637 822 l 1
EndSplineSet
EndChar

StartChar: u1B122
Encoding: 18 110882 18
Width: 734
Flags: HW
LayerCount: 2
Fore
SplineSet
278 -52 m 0
 250 -52 225.666666667 -49.6666666667 205 -45 c 1
 202 41 l 1
 224 37 249.5 35 278.5 35 c 128
 307.5 35 329.5 41.5 344.5 54.5 c 128
 359.5 67.5 367 136 367 260 c 2
 367 383 l 1
 43 383 l 1
 43 465 l 1
 367 465 l 1
 367 664 l 1
 74 664 l 1
 74 748 l 1
 641 748 l 1
 641 664 l 1
 454 664 l 1
 454 465 l 1
 671 465 l 1
 671 383 l 1
 454 383 l 1
 454 254 l 2
 454 215.333333333 453 166.166666667 451 106.5 c 128
 449 46.8333333333 436.333333333 7.33333333333 413 -12 c 0
 380.333333333 -38.6666666667 335.333333333 -52 278 -52 c 0
EndSplineSet
EndChar

StartChar: u1B132
Encoding: 19 110898 19
Width: 638
Flags: HW
LayerCount: 2
Fore
SplineSet
397 401 m 1
 303 401 l 1
 390 482 l 1
 109 482 l 1
 109 559 l 1
 516 559 l 1
 516 500 l 1
 397 401 l 1
174 120 m 0
 174 70.2007162297 190.348527798 36.6288471105 335 32 c 0
 413 32 482 37.6666666667 542 49 c 1
 542 -31 l 1
 476 -40.3333333333 404.666666667 -45 328 -45 c 0
 139.507213642 -45 97 20.1589565675 97 109 c 0
 97 154.333333333 116 195.333333333 154 232 c 1
 240 232 l 1
 196 188 174 150.666666667 174 120 c 0
EndSplineSet
EndChar

StartChar: u1B150
Encoding: 20 110928 20
Width: 651
Flags: HW
LayerCount: 2
Fore
SplineSet
375 403 m 1
 471.901149962 392.045956961 566 337.559773064 566 200 c 128
 566 157.333333333 560.666666667 120 550 88 c 1
 558 82 567.666666667 73.3333333333 579 62 c 1
 577 -23 l 1
 558.333333333 -5.66666666667 541 9.66666666667 525 23 c 1
 489.412683726 -46.6273579266 441.743621837 -65 384 -65 c 0
 321.333333333 -65 290 -29 290 43 c 0
 290 102.964248729 332.444626731 145 396 145 c 128
 427.333333333 145 458.333333333 138.333333333 489 125 c 1
 492.333333333 151.666666667 494 174 494 192 c 0
 494 274 450.333333333 321.666666667 363 335 c 1
 324.075329483 155.946515622 219.178008488 -28 134 -28 c 128
 93.3333333333 -28 65.6666666667 -15.1666666667 51 10.5 c 128
 36.3333333333 36.1666666667 29 69.3333333333 29 110 c 0
 29 186.666666667 56.6666666667 253.833333333 112 311.5 c 128
 167.333333333 369.166666667 230.666666667 400 302 404 c 1
 306.666666667 438 309.666666667 468.666666667 311 496 c 1
 91 496 l 1
 91 570 l 1
 390 570 l 1
 388 509.333333333 383 453.666666667 375 403 c 1
290 337 m 1
 191.765995792 324.971346424 100 221.467985053 100 116 c 0
 100 70.6666666667 111.333333333 48 134 48 c 0
 172.335878551 48 258.044715595 181.581116758 290 337 c 1
346 43 m 0
 346 13 362.166666667 -2 394.5 -2 c 128
 426.833333333 -2 452.333333333 19.3333333333 471 62 c 1
 440.333333333 79.3333333333 413.666666667 88 391 88 c 0
 362.333333333 88 347.333333333 73 346 43 c 0
EndSplineSet
EndChar

StartChar: u1B151
Encoding: 21 110929 21
Width: 668
Flags: HW
LayerCount: 2
Fore
SplineSet
572 274 m 0
 572 235.974925001 557.338611715 97 343 97 c 0
 329.666666667 97 316.333333333 97.6666666667 303 99 c 1
 269.666666667 71.6666666667 234.666666667 48 198 28 c 1
 224.666666667 34.6666666667 246.166666667 38 262.5 38 c 128
 307.54281932 38 310.401625124 14 373.5 14 c 128
 398.5 14 427.333333333 22.6666666667 460 40 c 1
 462 -26 l 1
 419.333333333 -46 385.666666667 -56 361 -56 c 128
 289.877760876 -56 249.065897009 -13.802196567 195 -12 c 0
 188.333333333 -12 181.333333333 -12.6666666667 174 -14 c 1
 49 -67 l 1
 49 6 l 1
 125.666666667 42.6666666667 183.333333333 76.6666666667 222 108 c 1
 145.897963996 127.025509001 111 151.403371837 111 192 c 0
 111 225.087802461 137.973742628 294 267 294 c 0
 340.333333333 294 377 270.666666667 377 224 c 0
 377 198.666666667 367.333333333 177 348 159 c 1
 400.666666667 163.666666667 438.5 176.166666667 461.5 196.5 c 128
 484.5 216.833333333 496 240.666666667 496 268 c 0
 496 329.333333333 448.166666667 360 352.5 360 c 128
 256.833333333 360 153 321 41 243 c 1
 41 323 l 1
 383 509 l 1
 101 507 l 1
 101 576 l 1
 490 576 l 1
 490 503 l 1
 335 410 l 1
 357 412 377.333333333 413 396 413 c 0
 513.333333333 413 572 366.666666667 572 274 c 0
275 161 m 1
 293.666666667 182.333333333 303 198.333333333 303 209 c 0
 303 231.666666667 282.5 243 241.5 243 c 128
 200.5 243 180 228.666666667 180 200 c 0
 180 180 211.666666667 167 275 161 c 1
596 -71 m 1
 513 -71 l 1
 490.333333333 6.33333333333 465 63 437 99 c 1
 527 100 l 1
 557 53.3333333333 580 -3.66666666667 596 -71 c 1
EndSplineSet
EndChar

StartChar: u1B152
Encoding: 22 110930 22
Width: 630
Flags: HW
LayerCount: 2
Fore
SplineSet
316 172 m 1
 287.601659751 157.011987091 228 125.555555556 228 72 c 0
 228 33.3333333333 251.666666667 14 299 14 c 2
 304 14 l 1
 512 16 l 1
 512 -61 l 1
 297 -61 l 2
 241.666666667 -61 200 -43.3333333333 172 -8 c 0
 158.666666667 9.33333333333 152 31 152 57 c 0
 152 145.788076198 207.409891217 197.972528008 317 251 c 1
 312.548549074 298.48214321 298.462245785 310 268 310 c 0
 216.966338899 310 147.923759208 240.102368914 112.5 200 c 128
 94.8333333333 180 71.3333333333 154.333333333 42 123 c 1
 42 237 l 1
 73.2683736 267.348715553 132.820586133 325.149392423 191 443 c 1
 45 443 l 1
 45 517 l 1
 217 517 l 1
 229 549.666666667 237.333333333 577.333333333 242 600 c 1
 321 600 l 1
 316.333333333 581.333333333 307.666666667 553.666666667 295 517 c 1
 496 517 l 1
 496 443 l 1
 273 443 l 1
 257.666666667 407.666666667 242 376.333333333 226 349 c 1
 258 363.666666667 285.833333333 371 309.5 371 c 128
 362.441218604 371 384.670215048 329.925483998 387 281 c 1
 472.333333333 322.333333333 529 348 557 358 c 1
 557 276 l 1
 504.333333333 256.666666667 448 231.666666667 388 201 c 1
 388 84 l 1
 316 84 l 1
 316 172 l 1
EndSplineSet
EndChar

StartChar: u1B155
Encoding: 23 110933 23
Width: 649
Flags: HW
LayerCount: 2
Fore
SplineSet
538 -18 m 1
 70 -18 l 1
 70 61 l 1
 457 61 l 1
 457 472 l 1
 70 472 l 1
 70 551 l 1
 538 551 l 1
 538 -18 l 1
EndSplineSet
EndChar

StartChar: u1B164
Encoding: 24 110948 24
Width: 638
Flags: HW
LayerCount: 2
Fore
SplineSet
451 -68 m 1
 369 -68 l 1
 369 71 l 1
 27 71 l 1
 27 152 l 1
 120 152 l 1
 120 407 l 1
 56 407 l 1
 56 487 l 1
 369 487 l 1
 369 588 l 1
 451 588 l 1
 451 487 l 1
 539 487 l 1
 539 407 l 1
 451 407 l 1
 451 152 l 1
 550 152 l 1
 550 71 l 1
 451 71 l 1
 451 -68 l 1
194 407 m 1
 194 152 l 1
 369 152 l 1
 369 407 l 1
 194 407 l 1
EndSplineSet
EndChar

StartChar: u1B165
Encoding: 25 110949 25
Width: 601
Flags: HW
LayerCount: 2
Fore
SplineSet
516 448 m 1
 508.079913112 416.9288899 463.756727531 270.974998411 315 198 c 1
 315 63 l 1
 527 63 l 1
 527 -18 l 1
 21 -18 l 1
 21 63 l 1
 233 63 l 1
 233 364 l 1
 315 364 l 1
 315 284 l 1
 378.333333333 334.666666667 418.666666667 396.666666667 436 470 c 1
 37 470 l 1
 37 551 l 1
 516 551 l 1
 516 448 l 1
EndSplineSet
EndChar

StartChar: u1B166
Encoding: 26 110950 26
Width: 600
Flags: HW
LayerCount: 2
Fore
SplineSet
88 -36 m 1
 88 47 l 1
 215.71966875 74.3685004463 303.806503469 124.861723359 376 255 c 1
 49 255 l 1
 49 329 l 1
 403 329 l 1
 413 370.333333333 418 421.666666667 418 483 c 1
 33 483 l 1
 33 560 l 1
 500 560 l 1
 500 462 l 2
 500 282.236999804 434.05846445 33.2116928901 88 -36 c 1
EndSplineSet
EndChar

StartChar: u1B167
Encoding: 27 110951 27
Width: 584
Flags: HW
LayerCount: 2
Fore
SplineSet
235 477 m 1
 23 477 l 1
 23 556 l 1
 235 556 l 1
 235 477 l 1
23 43 m 1
 108.933042086 48.1412931163 342.331699944 102.683219186 445 414 c 1
 527 414 l 1
 492.689628816 243.877742881 317.381570407 -11.9636599612 23 -40 c 1
 23 43 l 1
EndSplineSet
EndChar
